# xmcd CD Database Entry
#
# Track frame offsets:
# 150
# 14350
# 24342
# 36742
# 48730
# 58660
# 70002
# 86320
# 100502
# 108325
# 122940
# 135605
# 147757
# 158622
# 178595
# 192225
# 208500
# 221375
# 241297
# 255155
# 270247
#
# Disc length: 3776 seconds
#
# Revision: 2
# Processed by: cddbd v1.4PL0 Copyright (c) Steve Scherf et al.
# Submitted via: tcd 2.0b
#
DISCID=1a0ebe15
DTITLE=Clifton Chenier - Bon Ton Roulet! And More
DYEAR=1900
DGENRE=
TTITLE0=Bon Ton Roulet
TTITLE1=Frog Legs
TTITLE2=If I Ever Get Lucky
TTITLE3=Black Gal
TTITLE4=Long Toes
TTITLE5=Baby, Please Don't Go
TTITLE6=Houston Boogie
TTITLE7=Blues de Ma Negresse
TTITLE8=Sweet Little Doll (Cher Catin)
TTITLE9=Jole Blonde
TTITLE10=Ay, Ai, Ai
TTITLE11=French Town Waltz
TTITLE12=Keep on Scratching
TTITLE13=Black Snake Blues
TTITLE14=Let's Talk It Over
TTITLE15=Walking to Louisiana
TTITLE16=Key to the Highway
TTITLE17=Things Ain't Like They Used to Be
TTITLE18=I Got a Little Girl
TTITLE19=I'm on the Wonder
TTITLE20=Jump the Boogie
EXTD=
EXTT0=
EXTT1=
EXTT2=
EXTT3=
EXTT4=
EXTT5=
EXTT6=
EXTT7=
EXTT8=
EXTT9=
EXTT10=
EXTT11=
EXTT12=
EXTT13=
EXTT14=
EXTT15=
EXTT16=
EXTT17=
EXTT18=
EXTT19=
EXTT20=
PLAYORDER=
